<svg xmlns="http://www.w3.org/2000/svg" viewBox="0 0 32 32"><defs><style>.cls-1{fill:#231f20;}</style></defs><g id="crab"><path class="cls-1" d="M29.94,21.9a6.07,6.07,0,0,0-3.62-3.61A5.45,5.45,0,0,0,24.66,18c.09-.3.18-.59.24-.86a3.06,3.06,0,0,0-.09-1.8,5.33,5.33,0,0,0,3-1.7,5.27,5.27,0,0,0,1.21-3,1.22,1.22,0,0,0,.19-.12c1-.86,1.11-2.52.3-4.93a8.29,8.29,0,0,0-2.09-3.28A1,1,0,0,0,26.43,2a1,1,0,0,0-.71.67,14,14,0,0,0-.37,1.62c0,.23-.08.46-.13.68H23a1,1,0,0,0-.8.4,1,1,0,0,0-.16.88,6.6,6.6,0,0,0,2.17,3.26,7,7,0,0,0,2.7,1.36,3.12,3.12,0,0,1-.67,1.45,3.78,3.78,0,0,1-3.17,1.15h0a17.53,17.53,0,0,0-10.22-1.2,1,1,0,1,0,.36,2,15.57,15.57,0,0,1,9.24,1.14A1.1,1.1,0,0,1,23,16.66a10.44,10.44,0,0,1-4.41,6.63,4.93,4.93,0,0,1-5.13,0C10.77,21.69,9.57,18.8,9,16.66a1.1,1.1,0,0,1,.57-1.27,1,1,0,0,0,.5-1.32A1,1,0,0,0,9,13.51s-.07,0-.11,0a3.78,3.78,0,0,1-3.17-1.15,3.12,3.12,0,0,1-.67-1.45A7.1,7.1,0,0,0,7.8,9.54,6.64,6.64,0,0,0,10,6.28,1,1,0,0,0,9.8,5.4,1,1,0,0,0,9,5H6.78c0-.22-.09-.45-.13-.68A14,14,0,0,0,6.28,2.7,1,1,0,0,0,5.57,2a1,1,0,0,0-.94.25A8.29,8.29,0,0,0,2.54,5.56c-.81,2.41-.71,4.07.3,4.93a1.22,1.22,0,0,0,.19.12,5.27,5.27,0,0,0,1.21,3,5.33,5.33,0,0,0,2.94,1.7,3.19,3.19,0,0,0-.09,1.79c.07.28.16.57.25.87a5.45,5.45,0,0,0-1.66.28A6.07,6.07,0,0,0,2.06,21.9a1,1,0,0,0,.6,1.28,1,1,0,0,0,.34.06,1,1,0,0,0,.94-.66,4.08,4.08,0,0,1,2.38-2.39A3.77,3.77,0,0,1,7.89,20a.71.71,0,0,0,.21,0,12.9,12.9,0,0,0,.81,1.5,9.34,9.34,0,0,0-1.41.63A9.3,9.3,0,0,0,4.13,25.5a1,1,0,0,0,1.74,1A7.09,7.09,0,0,1,8.5,23.87a7,7,0,0,1,1.69-.69,9.93,9.93,0,0,0,1.65,1.42,8.57,8.57,0,0,0-.66.83,9,9,0,0,0-1.13,2.25A1,1,0,0,0,10.68,29,1.25,1.25,0,0,0,11,29a1,1,0,0,0,.95-.68,7,7,0,0,1,.87-1.75,6.66,6.66,0,0,1,.84-1A7.19,7.19,0,0,0,16,26a7,7,0,0,0,2.34-.42,7.37,7.37,0,0,1,.85,1,7,7,0,0,1,.87,1.75A1,1,0,0,0,21,29a1.25,1.25,0,0,0,.32-.05A1,1,0,0,0,22,27.68a9,9,0,0,0-1.13-2.25,8.57,8.57,0,0,0-.66-.83,10,10,0,0,0,1.66-1.42,7.06,7.06,0,0,1,4.31,3.32,1,1,0,0,0,1.74-1,9.3,9.3,0,0,0-3.37-3.37,9.92,9.92,0,0,0-1.41-.63A12.14,12.14,0,0,0,23.9,20a.75.75,0,0,0,.21,0,3.61,3.61,0,0,1,1.57.17,4.08,4.08,0,0,1,2.38,2.39,1,1,0,0,0,.94.66,1,1,0,0,0,.34-.06A1,1,0,0,0,29.94,21.9ZM24.56,7H26A1,1,0,0,0,27,6.3a8.48,8.48,0,0,0,.25-1,7.42,7.42,0,0,1,.37.86c.65,2,.4,2.67.3,2.76s-1.44-.19-2.4-1A4.85,4.85,0,0,1,24.56,7ZM4.43,6.2a7.42,7.42,0,0,1,.37-.86,8.48,8.48,0,0,0,.25,1A1,1,0,0,0,6,7H7.44a4.85,4.85,0,0,1-.91,1c-1,.78-2.17,1.16-2.4,1S3.78,8.15,4.43,6.2Z"/></g></svg>